<?xml version="1.0" encoding="UTF-8" standalone="no"?>
<!-- Generator: Adobe Illustrator 26.0.3, SVG Export Plug-In . SVG Version: 6.00 Build 0)  -->

<svg
   version="1.1"
   id="Layer_1"
   x="0px"
   y="0px"
   viewBox="0 0 330 45.999999"
   xml:space="preserve"
   sodipodi:docname="HCLTechLogo_supercharge2.svg"
   width="330"
   height="46"
   inkscape:version="1.4 (86a8ad7, 2024-10-11)"
   xmlns:inkscape="http://www.inkscape.org/namespaces/inkscape"
   xmlns:sodipodi="http://sodipodi.sourceforge.net/DTD/sodipodi-0.dtd"
   xmlns="http://www.w3.org/2000/svg"
   xmlns:svg="http://www.w3.org/2000/svg"><defs
   id="defs1" /><sodipodi:namedview
   id="namedview1"
   pagecolor="#ffffff"
   bordercolor="#666666"
   borderopacity="1.0"
   inkscape:showpageshadow="2"
   inkscape:pageopacity="0.0"
   inkscape:pagecheckerboard="0"
   inkscape:deskcolor="#d1d1d1"
   inkscape:zoom="1.7474634"
   inkscape:cx="505.59"
   inkscape:cy="90.702903"
   inkscape:window-width="1920"
   inkscape:window-height="991"
   inkscape:window-x="-9"
   inkscape:window-y="-9"
   inkscape:window-maximized="1"
   inkscape:current-layer="Layer_1" />
<style
   type="text/css"
   id="style1">
	.st0{fill:#FFFFFF;}
	.st1{fill:#0F5FDC;}
</style>
<path
   class="st1"
   d="M 20.168188,1.903189 V 16.269163 H 6.9451557 V 1.903189 H 0.10871 V 38.071074 H 6.9451557 V 22.934204 H 20.168188 v 15.140884 h 6.836446 V 1.903189 Z M 70.637447,31.349822 V 1.903189 h -6.843525 v 29.55504 c 0,4.292126 2.058019,6.616859 5.837541,6.616859 H 85.178178 V 31.353837 H 70.637447 Z M 85.174635,1.903189 V 8.56823 h 9.432875 v 29.502844 h 6.83646 V 8.56823 h 9.43641 V 1.903189 Z m 39.074005,27.330682 c -0.50652,2.224358 -2.18907,3.356612 -4.73946,3.356612 -3.19151,0 -5.24245,-2.272538 -5.69586,-5.942326 h 16.49603 c 0.0496,-0.566127 0.0956,-1.341038 0.0956,-2.324734 0,-5.942325 -3.23404,-12.707744 -11.34922,-12.707744 -7.79991,0 -11.3492,6.765419 -11.3492,13.382279 0,6.556633 4.01331,13.482654 11.80615,13.482654 5.65335,0 10.02797,-3.617591 10.93832,-9.246741 z m -5.1964,-12.346385 c 3.04983,0 4.83155,2.324735 5.01221,5.223626 h -10.16611 c 0.54904,-3.625622 2.27763,-5.223626 5.1539,-5.223626 z m 31.72748,11.471097 c -0.45695,2.324735 -2.32368,3.922738 -4.64737,3.922738 -3.46073,0 -5.51166,-2.999269 -5.51166,-7.231168 0,-4.231898 2.00134,-7.283364 5.42311,-7.283364 2.32369,0 4.27897,1.702396 4.64736,4.02713 h 6.3795 c -0.41088,-6.042702 -5.1964,-10.174224 -11.21105,-10.174224 -7.11629,0 -11.84866,5.833919 -11.84866,13.430458 0,7.592526 4.73592,13.430459 11.84866,13.430459 5.9686,0 10.71161,-4.340306 11.39525,-10.122029 z m 23.42811,-16.738888 c -3.19152,0 -5.69586,1.497627 -7.02064,4.02713 V 1.903189 h -6.33699 v 36.167885 h 6.33699 V 23.809492 c 0,-3.356611 1.96238,-5.781721 4.73946,-5.781721 2.64603,0 4.47026,2.272537 4.47026,5.424379 v 14.622938 h 6.337 V 21.854146 c 0,-6.002552 -3.37218,-10.234451 -8.52608,-10.234451 z M 31.294235,19.605699 c 0,-12.169723 6.939174,-18.465376 14.852444,-18.465376 7.449248,0 12.907779,5.155369 13.711854,12.944633 h -6.645166 c -0.421522,-3.766149 -3.343835,-6.291637 -7.066688,-6.291637 -4.781971,0 -8.462316,4.075311 -8.462316,11.81238 0,7.737068 3.680345,11.760183 8.462316,11.760183 3.807867,0 6.726638,-2.525488 7.236719,-6.239442 h 6.347621 c -0.549047,7.737069 -6.007571,12.944634 -13.58434,12.944634 -8.040792,0 -14.852444,-6.291638 -14.852444,-18.465375 z M 196.80351,38.071074 h -1.23976 V 1.144338 h 1.23976 z m 12.82631,-26.234565 h 1.22916 c 0.18418,2.176176 1.45229,3.585472 3.61658,3.585472 1.94821,0 3.37926,-0.807033 3.37926,-2.758364 0,-3.999024 -7.76805,-1.971407 -7.76805,-7.026399 0,-2.260492 1.76402,-3.77418 4.33565,-3.77418 2.49726,0 4.26127,1.658231 4.48089,4.20781 h -1.22914 c -0.16649,-1.762623 -1.39564,-2.922983 -3.25175,-2.922983 -1.92695,0 -3.06754,0.951575 -3.06754,2.485338 0,3.918723 7.80701,1.65823 7.80701,7.026399 0,2.613819 -2.04031,4.043189 -4.68279,4.043189 -2.86564,0.008 -4.66508,-1.923225 -4.84928,-4.866282 z m 19.1208,4.70568 h -1.15829 v -2.176176 c -0.47821,1.573912 -1.65421,2.340794 -3.12069,2.340794 -2.09344,0 -3.45365,-1.678305 -3.45365,-4.27205 V 6.090923 h 1.15831 v 6.183231 c 0,1.947315 0.97411,3.232143 2.46184,3.232143 1.72503,0 2.95773,-1.573914 2.95773,-3.794255 V 6.094938 h 1.1583 v 10.447251 z m 7.01356,-10.61187 c -1.36021,0 -2.64249,0.827107 -3.21278,2.051709 V 6.098953 h -1.15475 v 14.675135 h 1.15475 v -6.118989 c 0.57029,1.220585 1.85612,2.055723 3.21278,2.055723 2.94003,0 4.50214,-2.409051 4.50214,-5.392259 0,-2.983208 -1.56211,-5.388244 -4.50214,-5.388244 z m -0.0354,9.575978 c -2.00134,0 -3.30488,-1.65823 -3.30488,-4.187734 0,-2.529503 1.30354,-4.187733 3.30488,-4.187733 2.00135,0 3.30487,1.65823 3.30487,4.187733 0,2.529504 -1.30352,4.187734 -3.30487,4.187734 z m 13.31867,-2.260494 c -0.31171,1.429371 -1.33895,2.260494 -2.97545,2.260494 -1.85612,0 -3.2907,-1.722472 -3.36509,-4.063266 h 7.4032 c 0.0142,-0.148559 0.0354,-0.501886 0.0354,-0.686579 0,-2.882832 -1.70733,-4.830148 -4.24001,-4.830148 -2.6106,0 -4.37108,2.132011 -4.37108,5.303927 0,3.111691 1.90925,5.476576 4.53756,5.476576 2.29535,0 3.88934,-1.369144 4.18688,-3.465018 h -1.21142 z M 245.90551,7.13083 c 1.76402,0 2.90107,1.180434 3.02859,3.111691 h -6.1528 c 0.29754,-1.951332 1.43458,-3.111691 3.12421,-3.111691 z m 7.67596,-1.035892 h 3.14192 v 1.20051 h -3.41468 v 9.246741 h -1.15829 V 7.713017 c 0,-1.035892 0.51361,-1.618079 1.43105,-1.618079 z m 3.54573,5.223625 c 0,-2.734272 1.48773,-5.388244 4.42775,-5.388244 1.96593,0 3.80079,1.284827 4.1125,3.585471 h -1.14059 c -0.1842,-1.369144 -1.45231,-2.38496 -2.97544,-2.38496 -2.20326,0 -3.21279,1.927241 -3.21279,4.187733 0,2.260493 1.02724,4.187734 3.21279,4.187734 1.52313,0 2.60705,-0.831123 2.97544,-2.196251 h 1.10163 c -0.32943,2.091859 -1.74631,3.400776 -4.07707,3.400776 -2.93649,0 -4.42422,-2.653971 -4.42422,-5.392259 z m 10.39637,-9.45151 h 1.1583 v 6.404061 c 0.4782,-1.573914 1.65421,-2.340795 3.12067,-2.340795 2.09345,0 3.45365,1.678306 3.45365,4.27205 v 6.343834 h -1.15829 v -6.179215 c 0,-1.947316 -0.97412,-3.232143 -2.46183,-3.232143 -1.72506,0 -2.95774,1.573913 -2.95774,3.794254 v 5.617104 H 267.52 V 1.867053 Z m 13.6481,4.063266 c -1.92697,0 -3.69097,1.425356 -3.87518,3.436913 h 1.15832 c 0.0744,-1.220586 1.28581,-2.236402 2.71686,-2.236402 1.72859,0 2.71686,1.100133 2.71686,2.674046 0,0.309161 -0.16648,0.497871 -0.5703,0.497871 h -2.23866 c -2.29535,0 -3.76537,1.264752 -3.76537,3.256233 0,1.927241 1.26457,3.155857 3.25175,3.155857 1.48417,0 2.77,-0.811047 3.32258,-2.075799 v 1.907165 h 1.1583 V 9.804876 c 0,-2.320719 -1.45231,-3.874557 -3.87516,-3.874557 z m 2.71686,5.781723 c 0,2.405035 -1.19372,3.794255 -3.23402,3.794255 -1.28582,0 -2.10762,-0.766882 -2.10762,-1.951331 0,-1.324978 0.98827,-2.156101 2.53268,-2.156101 h 2.80896 z m 5.06889,-5.617104 h 3.14193 v 1.20051 h -3.41468 v 9.246741 h -1.1583 V 7.713017 c 0,-1.035892 0.51361,-1.618079 1.43105,-1.618079 z m 11.2394,0.004 v 1.674291 c -0.58446,-1.076043 -1.92695,-1.842924 -3.21277,-1.842924 -2.93648,0 -4.49859,2.405036 -4.49859,5.388244 0,2.983207 1.56211,5.392259 4.49859,5.392259 1.47001,0 2.79479,-0.706655 3.21277,-1.722471 v 4.58121 h -6.5212 v 1.204527 h 6.24491 c 0.91743,0 1.43105,-0.582187 1.43105,-1.618079 V 6.098978 Z m -3.17381,9.407344 c -2.00134,0 -3.30487,-1.658229 -3.30487,-4.187733 0,-2.529504 1.30353,-4.187734 3.30487,-4.187734 2.00134,0 3.30488,1.65823 3.30488,4.187734 0,2.529504 -1.30354,4.187733 -3.30488,4.187733 z m 6.85061,-13.639243 h 1.39563 v 2.115948 h -1.39563 z m 0.12752,4.227884 h 1.1583 v 10.44725 h -1.1583 z m 3.80433,0 h 1.15829 v 2.176175 c 0.47821,-1.573913 1.65421,-2.340795 3.12069,-2.340795 2.09343,0 3.45364,1.678306 3.45364,4.272051 v 6.343834 h -1.15831 V 10.36697 c 0,-1.947316 -0.9741,-3.232144 -2.46182,-3.232144 -1.72505,0 -2.95774,1.573914 -2.95774,3.794255 v 5.617114 h -1.1583 V 6.094938 Z m 17.28239,0.004 v 1.674288 c -0.58801,-1.076043 -1.92695,-1.842924 -3.21278,-1.842924 -2.94002,0 -4.49859,2.405036 -4.49859,5.388244 0,2.983207 1.55857,5.392258 4.49859,5.392258 1.47001,0 2.79126,-0.706654 3.21278,-1.722471 v 4.581213 h -6.5212 v 1.204524 h 6.24491 c 0.91743,0 1.43105,-0.582186 1.43105,-1.618078 V 6.098937 Z m -3.1809,9.407344 c -2.00134,0 -3.30487,-1.658231 -3.30487,-4.187733 0,-2.529504 1.30353,-4.187734 3.30487,-4.187734 2.00489,0 3.30488,1.65823 3.30488,4.187734 0,2.529502 -1.29999,4.187733 -3.30488,4.187733 z m -106.52103,7.96993 h -4.72175 v 14.510539 h 1.23268 v -6.094877 h 3.48907 c 2.47954,0 4.0204,-1.698382 4.0204,-4.203795 0,-2.505413 -1.54086,-4.211824 -4.0204,-4.211824 z m 0.0354,7.134806 h -3.52449 V 24.76506 h 3.52449 c 1.96591,0 2.68145,1.389218 2.68145,2.922982 0,1.529747 -0.71554,2.922982 -2.68145,2.922982 z m 6.94271,-3.07154 h 3.14193 v 1.20051 h -3.41468 v 9.246763 h -1.1583 v -8.829171 c 0,-1.035892 0.51362,-1.61808 1.43105,-1.61808 z m 8.21082,-0.164619 c -2.72041,0 -4.66507,2.236402 -4.66507,5.388243 0,3.147827 1.94466,5.39226 4.66507,5.39226 2.71687,0 4.66508,-2.240417 4.66508,-5.39226 0,-3.147825 -1.94821,-5.388243 -4.66508,-5.388243 z m 0,9.575977 c -2.05802,0 -3.45365,-1.742546 -3.45365,-4.187734 0,-2.445186 1.39209,-4.187733 3.45365,-4.187733 2.05448,0 3.45364,1.742547 3.45364,4.187733 0,2.445188 -1.39563,4.187734 -3.45364,4.187734 z m 13.64809,-9.407343 v 1.674289 c -0.588,-1.076042 -1.92695,-1.842923 -3.21277,-1.842923 -2.94003,0 -4.50214,2.405036 -4.50214,5.388243 0,2.983208 1.56211,5.39226 4.50214,5.39226 1.46648,0 2.79125,-0.706655 3.21277,-1.722472 v 4.581212 h -6.52118 v 1.204525 h 6.24135 c 0.92097,0 1.43105,-0.582187 1.43105,-1.618078 V 27.543521 Z m -3.17734,9.407343 c -2.00135,0 -3.30487,-1.65823 -3.30487,-4.187734 0,-2.529502 1.30352,-4.187733 3.30487,-4.187733 2.00134,0 3.30486,1.658231 3.30486,4.187733 0,2.529504 -1.30352,4.187734 -3.30486,4.187734 z m 8.37375,-9.411358 h 3.14193 v 1.20051 h -3.41467 v 9.246763 h -1.15831 v -8.829171 c 0,-1.035892 0.51363,-1.61808 1.43105,-1.61808 z m 11.05521,7.154881 c -0.31172,1.429369 -1.33895,2.260493 -2.97544,2.260493 -1.85612,0 -3.28717,-1.722472 -3.36155,-4.063266 h 7.39964 c 0.0177,-0.148558 0.039,-0.501886 0.039,-0.686581 0,-2.88283 -1.70735,-4.830146 -4.24357,-4.830146 -2.60706,0 -4.36753,2.13201 -4.36753,5.303927 0,3.111691 1.90925,5.476576 4.53402,5.476576 2.29889,0 3.89641,-1.369144 4.18687,-3.465019 h -1.21142 z m -3.13839,-6.11899 c 1.76401,0 2.90106,1.180435 3.03212,3.111692 h -6.1528 c 0.29046,-1.951332 1.43105,-3.111692 3.12068,-3.111692 z m 5.52937,6.114974 h 1.1583 c 0.12752,1.473537 0.99182,2.260493 2.46183,2.260493 1.28582,0 2.13241,-0.831122 2.13241,-1.782697 0,-3.420852 -5.52939,-0.393479 -5.52939,-4.934539 0,-1.742547 1.28583,-2.858741 3.26946,-2.858741 1.96592,0 3.30488,1.244676 3.41467,3.131765 h -1.15829 c -0.14877,-1.473535 -1.45231,-1.92724 -2.33431,-1.92724 -1.19372,0 -1.98363,0.662489 -1.98363,1.658231 0,3.027373 5.52938,0.124467 5.52938,4.934538 0,1.822849 -1.3425,2.987224 -3.34385,2.987224 -2.09344,-0.004 -3.46781,-1.312933 -3.61658,-3.469034 z m 8.19312,0 h 1.15829 c 0.12752,1.473537 0.99181,2.260493 2.46183,2.260493 1.28582,0 2.1324,-0.831122 2.1324,-1.782697 0,-3.420852 -5.52937,-0.393479 -5.52937,-4.934539 0,-1.742547 1.28582,-2.858741 3.26945,-2.858741 1.96592,0 3.30487,1.244676 3.41468,3.131765 h -1.15829 c -0.14879,-1.473535 -1.45231,-1.92724 -2.33432,-1.92724 -1.19372,0 -1.98363,0.662489 -1.98363,1.658231 0,3.027373 5.52937,0.124467 5.52937,4.934538 0,1.822849 -1.34249,2.987224 -3.34383,2.987224 -2.09344,-0.004 -3.47137,-1.312933 -3.61658,-3.469034 z m 8.06204,-10.44725 h 3.01795 v 0.69461 h -1.1831 v 3.673802 h -0.6553 v -3.673802 h -1.18309 v -0.69461 z m 3.67326,0 h 0.80762 l 1.18309,3.280324 1.1831,-3.280324 h 0.80763 v 4.368412 h -0.64115 v -2.995253 l -1.07329,2.995253 h -0.57028 l -1.05912,-2.995253 v 2.995253 h -0.64114 v -4.368412 z"
   id="path1"
   style="stroke-width:0.377124" />
</svg>
